<svg width="1094" height="250" viewBox="0 0 1094 250" fill="none" xmlns="http://www.w3.org/2000/svg">
<g clip-path="url(#clip0_5313_44126)">
<g opacity="0.6" filter="url(#filter0_f_5313_44126)">
<rect x="60" y="60" width="974" height="130" fill="url(#paint0_linear_5313_44126)"/>
</g>
<path d="M1015.55 178.934H1002.61L989.231 144.745H946.146L932.911 178.934H920.265L962.762 71H973.276L1015.55 178.934ZM985.334 133.496L972.835 100.189C971.168 95.8757 969.502 90.7045 967.835 84.6755C966.757 89.2831 965.213 94.4543 963.203 100.189L950.557 133.496H985.334Z" fill="#242424"/>
<path d="M918.795 82.5436H884.753V178.934H872.254V82.5436H838.212V71.4414H918.795V82.5436Z" fill="#242424"/>
<path d="M836.889 178.934H823.948L810.567 144.745H767.482L754.247 178.934H741.601L784.098 71H794.612L836.889 178.934ZM806.67 133.496L794.171 100.189C792.504 95.8757 790.838 90.7045 789.171 84.6755C788.093 89.2831 786.549 94.4543 784.539 100.189L771.893 133.496H806.67Z" fill="#242424"/>
<path d="M646.534 71.4414H679.473C696.187 71.4414 709.177 76.0734 718.441 85.3375C727.705 94.6016 732.337 107.542 732.337 124.158C732.337 141.902 727.509 155.48 717.853 164.891C708.196 174.253 694.349 178.934 676.311 178.934H646.534V71.4414ZM659.033 82.2495V168.126H674.253C689.105 168.126 700.28 164.474 707.78 157.171C715.328 149.818 719.102 139.059 719.102 124.894C719.102 110.679 715.573 100.018 708.515 92.9105C701.457 85.8032 691.016 82.2495 677.194 82.2495H659.033Z" fill="#242424"/>
<path d="M659.278 178.854H78V167.375H94.8584V135.556H104.217L124.012 167.375H143.522C140.573 163.178 132.444 151.134 119.134 131.245C124.049 129.09 127.849 126.121 130.534 122.34C133.219 118.521 134.561 114.173 134.562 109.295C134.562 100.901 131.839 94.6609 126.394 90.5771C120.986 86.4935 112.668 84.4521 101.438 84.4521H78V71.1221H659.278V178.854ZM153.392 137.881C153.392 147.334 156.341 154.802 162.24 160.285C168.139 165.768 176.42 168.509 187.083 168.509H187.707C197.954 168.509 206.14 165.768 212.266 160.285C218.391 154.802 221.454 147.523 221.454 138.448V84.4521H203.929V135.102C203.929 141.567 202.624 146.294 200.015 149.281C197.406 152.268 193.208 153.762 187.423 153.762C181.638 153.762 177.441 152.287 174.832 149.338C172.223 146.351 170.918 141.643 170.918 135.215V84.4521H153.392V137.881ZM462.01 137.881C462.01 147.334 464.959 154.802 470.857 160.285C476.756 165.768 485.037 168.509 495.7 168.509H496.324C506.571 168.509 514.758 165.768 520.884 160.285C527.009 154.802 530.072 147.523 530.072 138.448V84.4521H512.546V135.102C512.546 141.567 511.241 146.294 508.632 149.281C506.023 152.268 501.826 153.762 496.041 153.762C490.256 153.762 486.058 152.287 483.449 149.338C480.84 146.351 479.535 141.643 479.535 135.215V84.4521H462.01V137.881ZM234.884 167.375H251.501V84.292H234.884V167.375ZM258.028 98.8906H258.622C260.6 98.8906 262.42 99.3259 264.082 100.196C267.326 102.016 268.948 104.865 268.948 108.742C268.948 110.166 268.671 111.551 268.117 112.896C266.456 116.694 263.409 118.593 258.979 118.593H258.028V133.073H258.979C260.877 133.073 262.618 133.509 264.2 134.379C267.365 136.12 268.948 138.968 268.948 142.925C268.948 144.27 268.671 145.575 268.117 146.841C266.535 150.797 263.37 152.775 258.622 152.775H258.028V167.375H260.877C267.524 167.375 273.063 165.634 277.494 162.152C282.875 157.8 285.564 151.786 285.564 144.111C285.564 143.241 285.525 142.331 285.446 141.382C284.734 134.419 282.083 129.235 277.494 125.833C278.048 125.358 278.642 124.844 279.274 124.29C283.468 120.017 285.564 114.438 285.564 107.555C285.564 103.203 284.576 99.2071 282.598 95.5674C278.404 88.0504 271.163 84.292 260.877 84.292H258.028V98.8906ZM299.68 167.375H317.263V84.4521H299.68V167.375ZM338.136 167.375H361.617C376.288 167.375 387.499 163.744 395.251 156.484C403.04 149.224 406.936 138.769 406.936 125.119C406.936 112.301 403.192 102.318 395.705 95.1719C388.218 88.0254 377.707 84.4522 364.17 84.4521H338.136V167.375ZM424.121 167.375H441.704V84.4521H424.121V167.375ZM550.377 167.375H566.088V128.806C566.088 124.041 565.729 115.212 565.011 102.318H565.521L585.486 167.375H601.594L622.978 102.432H623.487C622.996 113.813 622.731 120.278 622.693 121.829C622.656 123.379 622.637 125.478 622.637 128.125V167.375H639.028V84.4521H615.094L594.277 147.863H593.938L574.312 84.4521H550.377V167.375ZM365.077 98.8584C380.807 98.8585 388.672 107.764 388.672 125.573C388.672 143.761 380.202 152.854 363.262 152.854H355.719V98.8584H365.077ZM100.189 98.8584C105.937 98.8584 110.134 99.7087 112.781 101.41C115.466 103.074 116.809 105.872 116.809 109.805C116.809 113.737 115.485 116.631 112.838 118.483C110.191 120.336 106.088 121.262 100.53 121.262H94.8584V98.8584H100.189Z" fill="#242424"/>
</g>
<defs>
<filter id="filter0_f_5313_44126" x="0" y="0" width="1094" height="250" filterUnits="userSpaceOnUse" color-interpolation-filters="sRGB">
<feFlood flood-opacity="0" result="BackgroundImageFix"/>
<feBlend mode="normal" in="SourceGraphic" in2="BackgroundImageFix" result="shape"/>
<feGaussianBlur stdDeviation="30" result="effect1_foregroundBlur_5313_44126"/>
</filter>
<linearGradient id="paint0_linear_5313_44126" x1="60" y1="175.873" x2="1034" y2="175.873" gradientUnits="userSpaceOnUse">
<stop stop-color="#3F5EFB"/>
<stop offset="0.5" stop-color="#FC466B"/>
<stop offset="0.865" stop-color="#FFC445"/>
</linearGradient>
<clipPath id="clip0_5313_44126">
<rect width="1094" height="250" fill="white"/>
</clipPath>
</defs>
</svg>
