<svg width="334" height="250" viewBox="0 0 334 250" fill="none" xmlns="http://www.w3.org/2000/svg">
<g opacity="0.6" filter="url(#filter0_f_5313_44129)">
<rect x="60" y="60" width="214" height="130" fill="url(#paint0_linear_5313_44129)"/>
</g>
<path d="M209.947 71C227.561 71 241.24 75.6494 250.981 84.9482C260.723 94.2473 265.595 107.237 265.595 123.916C265.595 141.678 260.527 155.283 250.392 164.729C240.305 174.176 225.717 178.899 206.627 178.899H201.606C201.208 178.904 200.806 178.909 200.403 178.909H183.012V179.027H75V168.259H92.9531V135.066H102.716L123.365 168.259H143.719C140.642 163.88 132.161 151.317 118.276 130.569C123.404 128.321 127.368 125.225 130.169 121.28C132.969 117.296 134.37 112.76 134.37 107.672C134.37 98.9153 131.529 92.4065 125.85 88.1465C120.209 83.8866 111.531 81.7569 99.8164 81.7568H75V71.0166H176.072V71H209.947ZM180.842 82.082V168.584H205.337C220.641 168.584 232.337 164.798 240.423 157.225C248.548 149.651 252.611 138.744 252.611 124.505C252.611 111.133 248.706 100.72 240.896 93.2646C233.087 85.8097 222.121 82.0821 208 82.082H180.842ZM148.743 128.669V168.345H156.679V128.669H148.743ZM159.796 128.669V135.641H160.079C161.024 135.641 161.893 135.848 162.687 136.264C164.236 137.133 165.011 138.493 165.011 140.345C165.011 141.025 164.879 141.687 164.614 142.329C163.821 144.143 162.366 145.05 160.25 145.05H159.796V151.965H160.25C161.157 151.965 161.988 152.172 162.743 152.588C164.254 153.419 165.011 154.78 165.011 156.669C165.011 157.311 164.879 157.935 164.614 158.539C163.859 160.428 162.346 161.373 160.079 161.373H159.796V168.345H161.156C164.33 168.345 166.976 167.514 169.092 165.852C171.661 163.773 172.946 160.901 172.946 157.235C172.946 156.82 172.927 156.386 172.89 155.933C172.55 152.608 171.283 150.132 169.092 148.507C169.356 148.28 169.639 148.035 169.941 147.771C171.944 145.73 172.946 143.066 172.946 139.778C172.946 137.7 172.474 135.792 171.529 134.054C169.527 130.464 166.068 128.669 161.156 128.669H159.796ZM208.946 97.1104C225.355 97.1105 233.56 106.4 233.56 124.979C233.559 143.951 224.724 153.437 207.053 153.438H199.184V97.1104H208.946ZM98.5146 96.7852C104.51 96.7852 108.889 97.6723 111.65 99.4473C114.451 101.183 115.851 104.102 115.851 108.204C115.851 112.306 114.47 115.324 111.709 117.257C108.948 119.189 104.668 120.156 98.8701 120.156H92.9531V96.7852H98.5146Z" fill="black"/>
<defs>
<filter id="filter0_f_5313_44129" x="0" y="0" width="334" height="250" filterUnits="userSpaceOnUse" color-interpolation-filters="sRGB">
<feFlood flood-opacity="0" result="BackgroundImageFix"/>
<feBlend mode="normal" in="SourceGraphic" in2="BackgroundImageFix" result="shape"/>
<feGaussianBlur stdDeviation="30" result="effect1_foregroundBlur_5313_44129"/>
</filter>
<linearGradient id="paint0_linear_5313_44129" x1="60" y1="175.873" x2="274" y2="175.873" gradientUnits="userSpaceOnUse">
<stop stop-color="#3F5EFB"/>
<stop offset="0.5" stop-color="#FC466B"/>
<stop offset="0.865" stop-color="#FFC445"/>
</linearGradient>
</defs>
</svg>
