<svg width="181" height="134" viewBox="0 0 181 134" fill="none" xmlns="http://www.w3.org/2000/svg">
<g opacity="0.8" filter="url(#filter0_f_5498_5782)">
<rect x="30.72" y="30.7197" width="119" height="72" fill="url(#paint0_linear_5498_5782)"/>
</g>
<path d="M112.214 39.0713C121.232 39.0713 128.236 41.4529 133.224 46.2139C138.211 50.9749 140.705 57.6256 140.705 66.165C140.705 75.2589 138.11 82.2248 132.921 87.0615C127.757 91.898 120.288 94.3164 110.514 94.3164H107.697C107.574 94.3173 107.451 94.3193 107.327 94.3193H98.4221V94.3799H43.1204V88.8672H52.3118V71.8721H57.3108L67.8831 88.8672H78.304C76.7286 86.6253 72.3863 80.193 65.2776 69.5703C67.9027 68.4193 69.9326 66.8337 71.3665 64.8145C72.8003 62.7747 73.5178 60.4518 73.5178 57.8467C73.5178 53.3632 72.0637 50.0307 69.1555 47.8496C66.2675 45.6686 61.8244 44.5781 55.8264 44.5781H43.1204V39.0781H94.8704V39.0713H112.214ZM97.3108 44.7451V89.0332H109.853C117.688 89.0331 123.677 87.0951 127.817 83.2178C131.977 79.3402 134.057 73.7554 134.057 66.4648C134.057 59.6186 132.058 54.2867 128.059 50.4697C124.06 46.6529 118.445 44.7451 111.215 44.7451H97.3108ZM80.8762 68.5967V88.9111H84.9397V68.5967H80.8762ZM86.5354 68.5967V72.166H86.6809C87.1643 72.1661 87.6098 72.2727 88.0159 72.4854C88.8089 72.9303 89.2053 73.6273 89.2053 74.5752C89.2053 74.9233 89.1376 75.2621 89.0022 75.5908C88.5959 76.5192 87.851 76.9833 86.7678 76.9834H86.5354V80.5244H86.7678C87.232 80.5245 87.6574 80.6311 88.0442 80.8438C88.818 81.2694 89.2053 81.9654 89.2053 82.9326C89.2053 83.2615 89.1376 83.5811 89.0022 83.8906C88.6153 84.8576 87.8413 85.3417 86.6809 85.3418H86.5354V88.9111H87.2317C88.8567 88.9111 90.2118 88.4849 91.2952 87.6338C92.6105 86.5698 93.2678 85.0991 93.2678 83.2227C93.2678 83.01 93.2588 82.7876 93.2395 82.5557C93.0654 80.8533 92.4171 79.5858 91.2952 78.7539C91.4304 78.638 91.5753 78.5121 91.7297 78.377C92.755 77.3323 93.2677 75.9681 93.2678 74.2852C93.2678 73.2211 93.0259 72.2435 92.5422 71.3535C91.5168 69.5158 89.7466 68.5967 87.2317 68.5967H86.5354ZM111.7 52.4395C120.102 52.4395 124.302 57.1952 124.302 66.707C124.302 76.421 119.778 81.2783 110.731 81.2783H106.701V52.4395H111.7ZM55.1594 52.2725C58.229 52.2725 60.4713 52.727 61.885 53.6357C63.3189 54.5243 64.0354 56.0188 64.0354 58.1191C64.0354 60.2194 63.3289 61.7643 61.9153 62.7539C60.5016 63.7433 58.3104 64.2382 55.342 64.2383H52.3118V52.2725H55.1594Z" fill="black"/>
<defs>
<filter id="filter0_f_5498_5782" x="-3.05176e-05" y="-0.000274658" width="180.44" height="133.44" filterUnits="userSpaceOnUse" color-interpolation-filters="sRGB">
<feFlood flood-opacity="0" result="BackgroundImageFix"/>
<feBlend mode="normal" in="SourceGraphic" in2="BackgroundImageFix" result="shape"/>
<feGaussianBlur stdDeviation="15.36" result="effect1_foregroundBlur_5498_5782"/>
</filter>
<linearGradient id="paint0_linear_5498_5782" x1="30.72" y1="94.8955" x2="149.72" y2="94.8956" gradientUnits="userSpaceOnUse">
<stop stop-color="#3F5EFB"/>
<stop offset="0.5" stop-color="#FC466B"/>
<stop offset="0.865" stop-color="#FFC445"/>
</linearGradient>
</defs>
</svg>
